<svg xmlns="http://www.w3.org/2000/svg" viewBox="0 0 1920 2400" preserveAspectRatio="none">
  <rect width="1920" height="2400" fill="transparent"/>
  <g fill="none" stroke-linecap="round" stroke-linejoin="round">
    <g stroke="#6f34c9" stroke-opacity=".24" stroke-width="1.35">
      <path d="M-80 210 L120 155 L280 300 L505 190 L720 350 L980 250 L1250 360 L1520 170 L2010 310"/>
      <path d="M35 620 L235 505 L440 690 L690 545 L920 735 L1180 590 L1450 780 L2010 560"/>
      <path d="M-70 1040 L180 900 L420 1125 L720 955 L980 1195 L1250 1010 L1600 1260 L2030 1080"/>
      <path d="M25 1535 L280 1340 L540 1585 L835 1390 L1090 1630 L1420 1440 L1740 1680 L2050 1500"/>
      <path d="M-40 2050 L240 1840 L545 2110 L850 1930 L1140 2160 L1450 1970 L1780 2210 L2040 2030"/>
      <path d="M120 155 L235 505 L180 900 L280 1340 L240 1840"/>
      <path d="M505 190 L440 690 L420 1125 L540 1585 L545 2110"/>
      <path d="M980 250 L920 735 L980 1195 L1090 1630 L1140 2160"/>
      <path d="M1520 170 L1450 780 L1600 1260 L1740 1680 L1780 2210"/>
      <path d="M280 300 L690 545 L420 1125 L835 1390"/>
      <path d="M720 350 L1180 590 L980 1195 L1420 1440"/>
      <path d="M1250 360 L1450 780 L1250 1010 L1740 1680"/>
    </g>
    <g stroke="#d8bcff" stroke-opacity=".08" stroke-width="2.1">
      <path d="M280 300 L235 505 L420 1125 L280 1340"/>
      <path d="M1520 170 L1450 780 L1600 1260 L1420 1440"/>
      <path d="M720 350 L690 545 L835 1390 L850 1930"/>
      <path d="M980 250 L1180 590 L1090 1630 L1140 2160"/>
    </g>
  </g>
  <g fill="#d8bcff" fill-opacity=".25">
    <circle cx="120" cy="155" r="1.7"/><circle cx="280" cy="300" r="1.5"/><circle cx="505" cy="190" r="2"/>
    <circle cx="720" cy="350" r="1.8"/><circle cx="980" cy="250" r="1.5"/><circle cx="1250" cy="360" r="1.8"/>
    <circle cx="1520" cy="170" r="2"/><circle cx="235" cy="505" r="1.6"/><circle cx="440" cy="690" r="1.8"/>
    <circle cx="690" cy="545" r="1.5"/><circle cx="920" cy="735" r="1.8"/><circle cx="1180" cy="590" r="1.7"/>
    <circle cx="1450" cy="780" r="1.9"/><circle cx="420" cy="1125" r="1.7"/><circle cx="980" cy="1195" r="1.8"/>
    <circle cx="1600" cy="1260" r="1.8"/><circle cx="540" cy="1585" r="1.8"/><circle cx="1090" cy="1630" r="1.8"/>
    <circle cx="1740" cy="1680" r="1.8"/>
  </g>
</svg>