<svg xmlns="http://www.w3.org/2000/svg" viewBox="0 0 1920 2200" preserveAspectRatio="none">
  <rect width="1920" height="2200" fill="transparent"/>
  <g fill="none" stroke-linecap="round" stroke-linejoin="round">
    <g stroke="#a855ff" stroke-opacity=".25" stroke-width="1.75">
      <path d="M20 190 L145 95 L290 230 L435 120 L620 250"/>
      <path d="M145 95 L245 395 L150 645 L310 795 L220 1080"/>
      <path d="M290 230 L420 450 L590 370 L730 535"/>
      <path d="M150 645 L420 450 L560 735 L790 660"/>
      <path d="M310 795 L560 735 L715 950 L935 835"/>
      <path d="M220 1080 L390 1220 L305 1445 L520 1600 L790 1470"/>
      <path d="M390 1220 L715 950 L850 1210 L790 1470"/>

      <path d="M1185 150 L1365 72 L1530 215 L1760 104 L1980 220"/>
      <path d="M1365 72 L1305 370 L1460 548 L1400 840"/>
      <path d="M1530 215 L1460 548 L1668 704 L1830 565"/>
      <path d="M1400 840 L1668 704 L1760 1000 L1985 920"/>
      <path d="M1125 1080 L1400 840 L1545 1210 L1830 1150"/>
      <path d="M1170 1490 L1545 1210 L1705 1515 L1990 1360"/>
      <path d="M1330 1710 L1705 1515 L1880 1750"/>

      <path d="M620 250 L860 370 L1080 275 L1185 150"/>
      <path d="M730 535 L965 655 L1305 370"/>
      <path d="M935 835 L1125 1080"/>
      <path d="M790 1470 L1060 1330 L1170 1490"/>
    </g>
    <g stroke="#ffffff" stroke-opacity=".10" stroke-width="2">
      <path d="M20 190 L245 395"/>
      <path d="M150 645 L310 795"/>
      <path d="M715 950 L935 835"/>
      <path d="M1365 72 L1530 215"/>
      <path d="M1460 548 L1668 704"/>
      <path d="M1545 1210 L1705 1515"/>
    </g>
    <g stroke="#b25cff" stroke-opacity=".16" stroke-width="1">
      <path d="M145 95 L290 230 L245 395 L20 190 Z"/>
      <path d="M420 450 L560 735 L790 660 L730 535 Z"/>
      <path d="M1400 840 L1668 704 L1760 1000 L1545 1210 Z"/>
      <path d="M1170 1490 L1545 1210 L1705 1515 L1330 1710 Z"/>
    </g>
  </g>
  <g fill="#e9d7ff" fill-opacity=".62">
    <circle cx="145" cy="95" r="2.3"/>
    <circle cx="290" cy="230" r="1.8"/>
    <circle cx="435" cy="120" r="2.5"/>
    <circle cx="245" cy="395" r="1.8"/>
    <circle cx="420" cy="450" r="2"/>
    <circle cx="560" cy="735" r="1.9"/>
    <circle cx="715" cy="950" r="2.4"/>
    <circle cx="390" cy="1220" r="1.8"/>
    <circle cx="790" cy="1470" r="2.3"/>
    <circle cx="1365" cy="72" r="2.8"/>
    <circle cx="1530" cy="215" r="1.9"/>
    <circle cx="1305" cy="370" r="2.1"/>
    <circle cx="1460" cy="548" r="1.9"/>
    <circle cx="1668" cy="704" r="2.3"/>
    <circle cx="1545" cy="1210" r="2.2"/>
    <circle cx="1705" cy="1515" r="2.6"/>
  </g>
</svg>