<svg xmlns="http://www.w3.org/2000/svg" viewBox="0 0 1920 1800" preserveAspectRatio="none">
  <defs>
    <filter id="blurGlow" x="-20%" y="-20%" width="140%" height="140%">
      <feGaussianBlur stdDeviation="6" result="b"/>
      <feMerge><feMergeNode in="b"/><feMergeNode in="SourceGraphic"/></feMerge>
    </filter>
  </defs>
  <rect width="1920" height="1800" fill="transparent"/>
  <g fill="none" stroke-linecap="round" stroke-linejoin="round" filter="url(#blurGlow)">
    <g stroke="#8d41ff" stroke-opacity=".22" stroke-width="3.5">
      <path d="M-80 270 L115 205 L270 345 L460 210 L620 330"/>
      <path d="M80 680 L260 535 L435 725 L640 590"/>
      <path d="M-70 1060 L150 930 L330 1110 L560 980 L760 1140"/>
      <path d="M55 1490 L280 1345 L500 1530 L760 1380"/>
      <path d="M1260 150 L1450 55 L1660 235 L2020 40"/>
      <path d="M1180 555 L1395 395 L1605 610 L1980 440"/>
      <path d="M1225 980 L1450 825 L1665 1045 L1980 910"/>
      <path d="M1140 1410 L1385 1240 L1640 1480 L2030 1310"/>
      <path d="M520 410 L785 285 L1045 470 L1260 350"/>
      <path d="M470 875 L760 720 L1030 930 L1280 780"/>
      <path d="M585 1320 L860 1160 L1120 1370 L1380 1205"/>
    </g>
    <g stroke="#ffffff" stroke-opacity=".08" stroke-width="5">
      <path d="M270 345 L260 535 L330 1110"/>
      <path d="M1450 55 L1395 395 L1450 825"/>
      <path d="M785 285 L760 720 L860 1160"/>
      <path d="M1045 470 L1030 930 L1120 1370"/>
    </g>
  </g>
  <g fill="#b761ff" fill-opacity=".16" filter="url(#blurGlow)">
    <circle cx="270" cy="345" r="26"/>
    <circle cx="460" cy="210" r="18"/>
    <circle cx="1395" cy="395" r="24"/>
    <circle cx="1605" cy="610" r="18"/>
    <circle cx="760" cy="720" r="20"/>
    <circle cx="1030" cy="930" r="18"/>
    <circle cx="1120" cy="1370" r="26"/>
    <circle cx="1665" cy="1045" r="22"/>
  </g>
</svg>
