<svg xmlns="http://www.w3.org/2000/svg" viewBox="0 0 1920 2200" preserveAspectRatio="none">
  <rect width="1920" height="2200" fill="transparent"/>
  <g fill="none" stroke-linecap="round" stroke-linejoin="round">
    <g stroke="#7a35d6" stroke-opacity=".20" stroke-width="2.4">
      <path d="M-120 250 L120 160 L290 320 L520 210 L730 360"/>
      <path d="M-60 720 L200 560 L430 770 L690 620 L910 820"/>
      <path d="M-130 1220 L150 1040 L390 1260 L700 1090 L960 1320"/>
      <path d="M-40 1760 L240 1560 L520 1830 L820 1640"/>
      <path d="M1130 180 L1360 70 L1590 280 L2050 80"/>
      <path d="M1040 650 L1320 460 L1570 720 L2040 520"/>
      <path d="M1080 1160 L1370 960 L1630 1240 L2030 1060"/>
      <path d="M1010 1720 L1340 1480 L1630 1780 L2040 1580"/>
      <path d="M470 420 L760 300 L1040 520 L1300 370"/>
      <path d="M420 960 L760 780 L1090 1040 L1360 850"/>
      <path d="M520 1470 L850 1260 L1160 1540 L1450 1330"/>
    </g>
    <g stroke="#caa6ff" stroke-opacity=".08" stroke-width="4.2">
      <path d="M290 320 L200 560 L390 1260"/>
      <path d="M1360 70 L1320 460 L1370 960"/>
      <path d="M760 300 L760 780 L850 1260"/>
      <path d="M1040 520 L1090 1040 L1160 1540"/>
    </g>
  </g>
  <g fill="#caa6ff" fill-opacity=".26">
    <circle cx="120" cy="160" r="2.4"/>
    <circle cx="290" cy="320" r="2.1"/>
    <circle cx="520" cy="210" r="2.9"/>
    <circle cx="200" cy="560" r="2.3"/>
    <circle cx="430" cy="770" r="2.5"/>
    <circle cx="690" cy="620" r="2.2"/>
    <circle cx="390" cy="1260" r="2.3"/>
    <circle cx="700" cy="1090" r="2.6"/>
    <circle cx="1360" cy="70" r="2.8"/>
    <circle cx="1590" cy="280" r="2.2"/>
    <circle cx="1320" cy="460" r="2.4"/>
    <circle cx="1570" cy="720" r="2.6"/>
    <circle cx="1370" cy="960" r="2.2"/>
    <circle cx="1630" cy="1240" r="2.5"/>
    <circle cx="850" cy="1260" r="2.3"/>
    <circle cx="1160" cy="1540" r="2.5"/>
  </g>
</svg>