<svg xmlns="http://www.w3.org/2000/svg" viewBox="0 0 1800 1300">
  <defs>
    <filter id="glow" x="-20%" y="-20%" width="140%" height="140%">
      <feGaussianBlur stdDeviation="3" result="blur"/>
      <feMerge>
        <feMergeNode in="blur"/>
        <feMergeNode in="SourceGraphic"/>
      </feMerge>
    </filter>
  </defs>

  <rect width="1800" height="1300" fill="none"/>

  <g fill="none" stroke-linecap="round" stroke-linejoin="round" filter="url(#glow)">
    <path d="M-80 260 L210 420 L460 120 L760 330 L1030 105 L1320 295 L1880 45"
          stroke="#b35cff" stroke-opacity="0.34" stroke-width="2.2"/>
    <path d="M-120 790 L190 660 L490 890 L760 640 L1010 780 L1310 540 L1880 720"
          stroke="#b35cff" stroke-opacity="0.25" stroke-width="2"/>
    <path d="M50 1130 L300 900 L610 1060 L880 915 L1170 1110 L1500 890 L1850 1040"
          stroke="#7c35ff" stroke-opacity="0.22" stroke-width="1.7"/>
    <path d="M90 110 L280 350 L120 640 L405 750 L555 500 L850 575 L990 355 L1260 480 L1490 260 L1660 450"
          stroke="#d8bcff" stroke-opacity="0.20" stroke-width="1.6"/>

    <path d="M210 420 L190 660 M460 120 L555 500 M760 330 L760 640 M1030 105 L1010 780 M1320 295 L1310 540 M1490 260 L1500 890"
          stroke="#b35cff" stroke-opacity="0.18" stroke-width="1"/>
    <path d="M-60 395 L210 420 L280 350 L460 120"
          stroke="#ffffff" stroke-opacity="0.20" stroke-width="2.3"/>
    <path d="M1310 540 L1500 890 L1850 1040"
          stroke="#ffffff" stroke-opacity="0.16" stroke-width="2"/>
  </g>

  <g filter="url(#glow)">
    <g fill="#d8bcff" fill-opacity="0.52">
      <circle cx="210" cy="420" r="3.4"/>
      <circle cx="460" cy="120" r="3.4"/>
      <circle cx="760" cy="330" r="2.8"/>
      <circle cx="1030" cy="105" r="3.2"/>
      <circle cx="1320" cy="295" r="3"/>
      <circle cx="190" cy="660" r="2.8"/>
      <circle cx="490" cy="890" r="3.3"/>
      <circle cx="760" cy="640" r="2.7"/>
      <circle cx="1010" cy="780" r="3.2"/>
      <circle cx="1310" cy="540" r="3.3"/>
      <circle cx="1500" cy="890" r="3"/>
    </g>
    <g fill="#a855ff" fill-opacity="0.33">
      <circle cx="90" cy="110" r="2"/>
      <circle cx="280" cy="350" r="2"/>
      <circle cx="555" cy="500" r="2"/>
      <circle cx="850" cy="575" r="2"/>
      <circle cx="1490" cy="260" r="2"/>
      <circle cx="1660" cy="450" r="2"/>
      <circle cx="300" cy="900" r="2"/>
      <circle cx="880" cy="915" r="2"/>
      <circle cx="1170" cy="1110" r="2"/>
    </g>
  </g>
</svg>
